Coordinates
version=1
nRows=4
nColumns=63
inDegrees=yes

Units are S.I. units (second, meters, Newtons, ...)
If the header above contains a line with 'inDegrees', this indicates whether rotational values are in degrees (yes) or radians (no).

endheader
time	pelvis_tilt	pelvis_list	pelvis_rotation	pelvis_tx	pelvis_ty	pelvis_tz	hip_flexion_r	hip_adduction_r	hip_rotation_r	knee_angle_r	knee_angle_r_beta	ankle_angle_r	subtalar_angle_r	mtp_angle_r	hip_flexion_l	hip_adduction_l	hip_rotation_l	knee_angle_l	knee_angle_l_beta	ankle_angle_l	subtalar_angle_l	mtp_angle_l	L5_S1_Flex_Ext	L5_S1_Lat_Bending	L5_S1_axial_rotation	L4_L5_Flex_Ext	L4_L5_Lat_Bending	L4_L5_axial_rotation	L3_L4_Flex_Ext	L3_L4_Lat_Bending	L3_L4_axial_rotation	L2_L3_Flex_Ext	L2_L3_Lat_Bending	L2_L3_axial_rotation	L1_L2_Flex_Ext	L1_L2_Lat_Bending	L1_L2_axial_rotation	L1_T12_Flex_Ext	L1_T12_Lat_Bending	L1_T12_axial_rotation	Abs_r3	Abs_r2	Abs_r1	Abs_t1	Abs_t2	neck_flexion	neck_bending	neck_rotation	arm_flex_r	arm_add_r	arm_rot_r	elbow_flex_r	pro_sup_r	wrist_flex_r	wrist_dev_r	arm_flex_l	arm_add_l	arm_rot_l	elbow_flex_l	pro_sup_l	wrist_flex_l	wrist_dev_l
      2.18644068	      0.65161606	     -3.09061805	     91.46983318	      0.24676480	      1.07064852	      0.39879550	     -7.98015993	     -1.31428525	      5.71404319	     11.22592658	      0.19592938	     35.68185495	     -3.47636091	      0.00000000	    -12.25075657	     -0.19408815	      4.72015869	      1.71339862	      0.02990445	     35.57666643	     -4.23626974	      0.00000000	     -0.10324798	     -0.10598457	      0.32223144	     -0.19174183	     -0.14095948	      0.34237091	     -0.16962611	     -0.25769089	      0.34237091	     -0.11800212	     -0.25769089	      0.28195251	     -0.09587608	     -0.21612374	      0.26181305	     -0.05899590	     -0.16417010	      0.24167358	     -0.73749001	     -1.19891867	      1.79215462	      0.00000000	      0.00000000	     16.93242764	    -17.45889240	     10.94887283	     68.93074401	    -18.58222636	     20.81578915	     79.68244636	     81.91044655	      0.19412621	      1.25674869	     15.28790001	     -8.93788973	      5.30628245	    100.17030875	     65.57693325	    -12.43809601	     20.24099262
      2.20338983	      0.75622343	     -2.88255724	     91.79323725	      0.24676969	      1.07011960	      0.39845402	     -8.26727562	     -1.09178858	      5.76534279	     11.19004464	      0.19530312	     35.71080798	     -3.91742964	      0.00000000	    -12.49964693	     -0.40406136	      5.94657125	      1.63607807	      0.02855495	     35.66522586	     -5.15604954	      0.00000000	     -0.11718464	     -0.08986175	      0.43972287	     -0.21762360	     -0.11951612	      0.46720555	     -0.19252265	     -0.21848985	      0.46720555	     -0.13393033	     -0.21848985	      0.38475751	     -0.10881766	     -0.18324607	      0.35727483	     -0.06695930	     -0.13919584	      0.32979215	     -0.83703817	     -1.01653403	      2.44560670	      0.00000000	      0.00000000	     16.37618142	    -17.87487931	     10.30923338	     67.35467753	    -18.35548865	     20.69697303	     79.83342512	     80.43413009	     -5.76159273	      0.54688016	     15.13127600	     -6.60970080	      5.61940737	     99.41770323	     65.82266422	    -11.81325573	     21.29046078
      2.22033898	      0.69017808	     -2.71564831	     92.44412226	      0.24665842	      1.06982366	      0.39845592	     -8.54218723	     -0.98563321	      5.42892036	     11.12262902	      0.19412650	     35.72343437	     -4.34372581	      0.00000000	    -12.61316212	     -0.53596541	      6.87736571	      1.64187265	      0.02865608	     35.87474821	     -5.17303020	      0.00000000	     -0.12512730	     -0.10966797	      0.50198253	     -0.23237391	     -0.14585840	      0.53335644	     -0.20557165	     -0.26664670	      0.53335644	     -0.14300799	     -0.26664670	      0.43923471	     -0.11619321	     -0.22363492	      0.40786081	     -0.07149774	     -0.16987568	      0.37648690	     -0.89377181	     -1.24058600	      2.79187624	      0.00000000	      0.00000000	     15.22705119	    -17.98154692	      8.82164786	     65.33076333	    -17.79163888	     19.37080206	     80.01647771	     79.19835065	     -9.03998745	      1.17665896	     15.15621672	     -4.30243289	      5.93858867	     98.46681435	     68.52844523	    -11.81322503	     22.98441861
      2.23728814	      0.75339425	     -2.51848033	     92.69108173	      0.24664654	      1.06978644	      0.39892853	     -8.70885667	     -0.83890176	      5.35802667	     11.18763369	      0.19526104	     35.76501780	     -4.55969195	      0.00000000	    -12.76837815	     -0.68368867	      7.57875375	      1.63840317	      0.02859553	     36.01868966	     -5.50426516	      0.00000000	     -0.14915010	     -0.10639897	      0.57026044	     -0.27698665	     -0.14151063	      0.60590172	     -0.24503869	     -0.25869845	      0.60590172	     -0.17046365	     -0.25869845	      0.49897789	     -0.13850078	     -0.21696877	      0.46333661	     -0.08522437	     -0.16481200	      0.42769533	     -1.06536423	     -1.20360639	      3.17161751	      0.00000000	      0.00000000	     14.05932629	    -17.99509595	      7.89159834	     63.61315506	    -17.06763976	     18.42243832	     80.34837053	     78.16264982	    -12.09202609	      3.23091024	     15.00540155	     -1.96325541	      5.95095678	     97.68668332	     74.81865115	    -12.87970510	     24.50710369
